Simulation
nRows=28
nColumns=15
endheader
time  TH_x TH_y TH_z SC_y  SC_z  SC_x  AC_y  AC_z  AC_x  GH_y  GH_z  GH_yy  EL_x  PS_y
1.25  0.000000  0.000000  0.000000  -35.33414240389081  6.634807897293126  20.612804026537205  70.588988218209  13.55348196393179  -2.645280214806315  -4.925034914376409  61.65848688756991  -15.27196622416325  23.64283818899638  120.000000
1.2750000000000001  0.000000  0.000000  0.000000  -35.55356484693405  6.766526690770714  20.973762733519937  70.68238977388594  13.57501006220955  -2.445156865750415  -5.032983842991169  61.92053665061151  -15.879977870760328  23.58013131024101  120.000000
1.3  0.000000  0.000000  0.000000  -35.76950168406057  6.890333582614484  21.32199727869946  70.76456655520059  13.591457166646105  -2.2596537422712273  -5.119479080155693  62.12726686179508  -16.440998371880724  23.539979352632848  120.000000
1.3250000000000002  0.000000  0.000000  0.000000  -35.97773483339021  7.004331895426843  21.653251111703  70.83269882059437  13.600512746963  -2.0944051780472317  -5.183430260776841  62.284398924826405  -16.940641231351098  23.516545853569184  120.000000
1.35  0.000000  0.000000  0.000000  -36.17257379879572  7.106397850161593  21.962389400353988  70.88557127636872  13.599487753907047  -1.9543197530972956  -5.225398553015353  62.39753574133279  -17.366735510570404  23.503805021270352  120.000000
1.375  0.000000  0.000000  0.000000  -36.348189980804186  7.19450831298498  22.244110561857728  70.92357360053661  13.585528488595568  -1.8432919164851862  -5.247418204454572  62.47187160735534  -17.71037724666792  23.495834910745263  120.000000
1.4000000000000001  0.000000  0.000000  0.000000  -36.49821413199715  7.266644175621606  22.492612778956246  70.94844248074055  13.55604452640104  -1.7640951622045367  -5.252377832920366  62.511566612195516  -17.966513016944322  23.487210067055965  120.000000
1.425  0.000000  0.000000  0.000000  -36.617438795281366  7.321103039247749  22.702577821860512  70.96274133942556  13.509062231114696  -1.718418682717988  -5.243306547187165  62.51928517096237  -18.134147123079156  23.4735662491971  120.000000
1.4500000000000002  0.000000  0.000000  0.000000  -36.70148928957898  7.356300408492709  22.868996540139143  70.9693632425188  13.443633720608647  -1.706978320196109  -5.222584576401075  62.495576069887264  -18.21633190323092  23.45221637304971  120.000000
1.475  0.000000  0.000000  0.000000  -36.74834639385267  7.370968778515947  22.98825685471484  70.97110849860495  13.360071494516456  -1.729650518845847  -5.191410017074325  62.43851267935056  -18.219897120397818  23.422665384055996  120.000000
1.5  0.000000  0.000000  0.000000  -36.7574586502331  7.363943841476523  23.057708431470836  70.97041313992571  13.259957627248689  -1.785555382403831  -5.149518421510726  62.343719181501505  -18.15468089858057  23.386745203829594  120.000000
1.5250000000000001  0.000000  0.000000  0.000000  -36.730662341904925  7.33446367172771  23.07638807047024  70.96928624633922  13.145917766424004  -1.8730758881882925  -5.095238803251511  62.20476912938704  -18.03230084857171  23.34822172952656  120.000000
1.55  0.000000  0.000000  0.000000  -36.67064454914476  7.282049479577561  23.044047329386903  70.96934949226555  13.021159210954568  -1.9898291762681395  -5.025846300401268  62.01409838226533  -17.86466834913562  23.312065486912786  120.000000
1.5750000000000002  0.000000  0.000000  0.000000  -36.58149670825238  7.206841953815163  22.961540931318996  70.97197104936266  12.88903686464831  -2.132665957155673  -4.938027057754779  61.7638204738234  -17.66246330024173  23.28361660918631  120.000000
1.6  0.000000  0.000000  0.000000  -36.46708178153723  7.109381641319449  22.82967682859468  70.97838129287345  12.75260447184211  -2.2977194892611243  -4.828425263497722  61.4467681663224  -17.433922927858042  23.267903694488062  120.000000
1.625  0.000000  0.000000  0.000000  -36.331693446221955  6.990747246278382  22.6496238505402  70.98978595513177  12.614418080097051  -2.480588291428542  -4.694103991367442  61.05714134740514  -17.18420981297858  23.269093877502797  120.000000
1.6500000000000001  0.000000  0.000000  0.000000  -36.17869107438614  6.852215193822758  22.42196424885273  71.00736004251297  12.476393514649805  -2.676637604517361  -4.532988458270183  60.5910356461804  -16.91537911437733  23.290119228941013  120.000000
1.675  0.000000  0.000000  0.000000  -36.011462272543476  6.695167960394325  22.147232360558682  71.0321807373223  12.339739875907261  -2.8814654661676253  -4.34413327366802  60.04659706732203  -16.627081372357797  23.332393589116425  120.000000
1.7000000000000002  0.000000  0.000000  0.000000  -35.832387763441844  6.520545192853571  21.825101049234924  71.06513514819578  12.204982166552474  -3.091123560281429  -4.12770257118676  59.42416739781167  -16.317511756395863  23.395419624232176  120.000000
1.725  0.000000  0.000000  0.000000  -35.643679767213996  6.328895728320693  21.45503461676301  71.10681016580654  12.0722079860719  -3.3023252714745506  -3.8846285191659162  58.72640542176097  -15.984454005318215  23.476564029254234  120.000000
1.75  0.000000  0.000000  0.000000  -35.44622427124473  6.120132933301256  21.035905383437665  71.1575429391167  11.941284060461209  -3.5125299921819813  -3.6162952741815366  57.95823947982343  -15.625891485230133  23.5710102819074  120.000000
1.7750000000000001  0.000000  0.000000  0.000000  -35.240735287612274  5.893793243290942  20.56687789064462  71.2172256185837  11.811859983694006  -3.7198575832798912  -3.3243415300052566  57.12662967034191  -15.24011718090903  23.671932078453224  120.000000
1.8  0.000000  0.000000  0.000000  -35.02693576742719  5.649064887745507  20.046943936235547  71.28494588992608  11.683435168712647  -3.9230534488116837  -3.010617601094317  56.240009298937856  -14.825356215618779  23.771235755891293  120.000000
1.8250000000000002  0.000000  0.000000  0.000000  -34.804780706630005  5.385297849765735  19.475794675930906  71.35865142306679  11.555403938857626  -4.121362910409853  -2.677239290150762  55.30768240911889  -14.37898444157288  23.860587163346878  120.000000
1.85  0.000000  0.000000  0.000000  -34.57364271541027  5.102178532578048  18.85355983780448  71.43496253712297  11.427108132463639  -4.314377785655218  -2.3265720322936247  54.339191520261124  -13.896901304505459  23.932461809060523  120.000000
1.875  0.000000  0.000000  0.000000  -34.33345602902959  4.800177165252801  18.18173705258357  71.5091213093062  11.297919981914937  -4.501829793439512  -1.9612161780180417  53.34373288976752  -13.373217275770255  23.981007046979794  120.000000
1.9000000000000001  0.000000  0.000000  0.000000  -34.083791027402626  4.48053206916677  17.462853226771006  71.57526630830694  11.167321068327396  -4.683460968697588  -1.5839238055095688  52.32974486290834  -12.800727564656468  24.002424467771704  120.000000
1.925  0.000000  0.000000  0.000000  -33.82496196936258  4.145409027316672  16.701254195956544  71.62692715202277  11.034906231711416  -4.858877010987074  -1.1974809569613634  51.3045415360824  -12.172094931839734  23.994947552551935  120.000000
